PathFileType	4	(X/Y/Z)	D:\TRACE\spotREDO_2-26-24\spot_Both_Motion_1_9-platform.trc
DataRate	CameraRate	NumFrames	NumMarkers	Units	OrigDataRate	OrigDataStartFrame	OrigNumFrames
100.00	100.00	      61	5	mm	100.00	876	      7000
Frame#	Time	Left_Front			Right_Front			Left_Aft			Right_Aft			Post			
		X1	Y1	Z1	X2	Y2	Z2	X3	Y3	Z3	X4	Y4	Z4	X5	Y5	Z5	

876	8.750	-691.17834	-29.42968	-581.78418	723.86353	-17.48067	-497.57272	-762.61444	30.58935	635.33966	807.64948	38.28609	639.54724	18.57003	579.10767	-1015.35364	
877	8.760	-691.80957	-29.48424	-581.85858	722.84973	-17.63404	-497.42303	-763.52393	30.67129	635.33478	806.79999	38.24030	639.63971	17.77708	579.28851	-1015.21716	
878	8.770	-692.86139	-29.46896	-581.80481	721.68549	-17.64354	-497.46674	-764.52087	30.63936	635.41400	806.06281	38.15668	639.66235	16.87007	579.44592	-1014.86469	
879	8.780	-693.83990	-29.31335	-581.72516	721.22711	-17.18627	-497.07144	-765.59332	30.38606	635.37634	804.80707	38.00534	639.53546	15.61662	579.65735	-1014.47961	
880	8.790	-694.77515	-29.41702	-581.77740	720.16412	-16.99073	-497.15466	-766.36365	30.17713	635.49969	803.71667	37.77749	639.44086	14.61967	579.81512	-1014.34326	
881	8.800	-695.58423	-28.97931	-581.73059	719.38739	-16.98323	-497.03873	-767.50818	29.94556	635.55804	802.99097	37.38301	639.66809	14.28937	579.96124	-1013.81750	
882	8.810	-696.86029	-28.76225	-581.72620	718.16248	-16.94861	-496.91348	-768.35461	29.67149	635.66681	801.79761	37.45021	639.76343	13.14004	580.39978	-1013.70099	
883	8.820	-697.70135	-28.48021	-581.57941	717.41779	-16.73815	-496.89182	-769.15576	29.61075	635.72015	801.24609	37.47089	639.75574	12.05535	580.90753	-1013.92328	
884	8.830	-698.75458	-28.37025	-581.66058	716.26483	-16.21768	-496.96271	-770.28198	29.45489	635.90057	799.81671	37.10518	639.93347	10.98263	581.09973	-1014.00665	
885	8.840	-699.68628	-28.06623	-581.58990	715.36798	-16.36454	-496.80429	-771.14075	29.21480	635.90521	799.15894	37.03530	640.04755	9.89602	581.42804	-1013.85504	
886	8.850	-700.85370	-27.88515	-581.56488	714.58380	-16.37160	-496.77927	-772.02258	28.89618	635.86060	798.07050	36.52693	639.99304	9.10835	581.57843	-1013.60486	
887	8.860	-701.52753	-28.19091	-581.69403	713.33142	-16.10289	-496.79730	-773.23621	28.84057	635.98340	797.23804	36.29427	640.09509	8.29811	581.75281	-1013.56042	
888	8.870	-702.54156	-27.72847	-581.58240	712.29431	-15.60629	-496.91879	-774.35333	28.65806	636.08582	796.02795	36.40813	640.19775	7.09798	582.15381	-1013.28064	
889	8.880	-703.73529	-27.46724	-581.36115	711.70184	-15.84866	-496.57010	-775.01349	28.56046	636.00079	795.10730	36.14384	640.14087	5.83813	582.58307	-1012.91669	
890	8.890	-704.38550	-27.39266	-581.46881	710.63660	-15.54014	-496.52646	-775.98846	28.32974	636.13873	794.17639	35.95432	640.12823	5.19283	582.81677	-1012.73114	
891	8.900	-705.58069	-27.31264	-581.41522	709.50964	-15.40464	-496.84250	-777.11115	28.17504	636.19293	793.46179	35.77873	640.22522	4.10277	582.92139	-1012.34979	
892	8.910	-706.32648	-27.29780	-581.36664	708.47736	-15.24991	-496.63910	-777.78595	28.03645	636.18378	792.15540	35.58160	640.23853	2.72122	583.23859	-1012.11523	
893	8.920	-707.28381	-27.22087	-581.40009	707.58252	-15.30566	-496.60815	-779.01300	27.79832	636.24878	791.39227	35.36077	640.18988	2.26735	583.42279	-1011.72479	
894	8.930	-708.22455	-26.90888	-581.30304	706.52283	-14.92236	-496.69406	-779.99341	27.71141	636.41956	790.13232	35.35308	640.29041	1.16360	583.85040	-1011.39575	
895	8.940	-709.35034	-26.67631	-581.03424	705.64307	-14.77978	-496.55215	-780.82733	27.49750	636.39148	789.12634	35.07107	640.27631	0.62944	584.58502	-1011.21436	
896	8.950	-710.46521	-26.43032	-580.93060	704.78162	-14.68751	-496.47763	-781.84338	27.18566	636.44556	788.51758	34.97403	640.46936	-0.43939	584.74023	-1011.18201	
897	8.960	-711.31311	-26.15684	-580.85449	703.93091	-14.67337	-496.19092	-782.70374	27.00422	636.51202	787.59991	34.56155	640.65106	-1.60277	584.84485	-1011.22961	
898	8.970	-712.00110	-26.14917	-580.94098	702.90863	-14.53814	-496.26831	-783.51434	26.77519	636.66931	786.34753	34.28381	640.78082	-2.30177	585.13995	-1010.96234	
899	8.980	-712.99756	-26.01681	-580.95642	701.97253	-14.16731	-496.26572	-784.62732	26.40932	636.67212	785.35004	34.08416	640.72644	-3.40604	585.58685	-1010.66461	
900	8.990	-714.19818	-25.49683	-580.88330	700.88171	-13.93700	-496.17517	-785.51666	26.17680	636.72021	784.69879	33.98416	640.77692	-4.11249	586.01160	-1010.64307	
901	9.000	-715.06732	-25.33801	-580.81097	700.07861	-13.73342	-496.09964	-786.50867	25.89077	636.91333	783.76666	33.55359	640.90765	-5.31740	586.43719	-1010.23669	
902	9.010	-715.75305	-25.04513	-580.77582	698.92822	-13.57485	-496.12460	-787.75555	25.68464	636.94800	782.62567	33.06845	640.84973	-6.48819	587.03802	-1009.85162	
903	9.020	-717.06378	-24.56874	-580.56360	698.36267	-13.45888	-495.88821	-788.39264	25.57471	637.05707	781.89520	33.06102	641.01428	-7.71197	587.64178	-1009.51819	
904	9.030	-717.94305	-24.51603	-580.53625	697.28186	-13.02700	-495.98587	-789.19983	25.22892	637.10895	781.06409	32.79520	641.14215	-8.44045	587.96747	-1008.89038	
905	9.040	-718.58612	-24.34736	-580.58276	696.23438	-12.91412	-495.85675	-790.16931	24.95681	637.09271	779.82520	32.37867	641.05762	-9.02174	588.43597	-1008.29675	
906	9.050	-719.70276	-23.94304	-580.60980	695.44470	-12.75701	-495.89703	-791.03510	24.81331	637.27209	778.92371	32.08142	641.12665	-10.16214	588.95831	-1007.83008	
907	9.060	-720.47430	-23.68105	-580.47852	694.38440	-12.22391	-495.81189	-792.24744	24.47749	637.32599	777.91583	31.82973	641.42010	-10.90762	589.61584	-1007.44965	
908	9.070	-721.43573	-23.38975	-580.50549	693.50537	-12.05143	-495.66953	-793.01343	24.19442	637.49530	777.43164	31.63867	641.52533	-11.83551	590.11499	-1007.04102	
909	9.080	-722.44403	-23.05999	-580.39160	692.65527	-11.90486	-495.71396	-793.98230	23.74466	637.56964	776.22516	31.07098	641.53955	-12.83698	590.55865	-1006.67529	
910	9.090	-723.33435	-22.74170	-580.28119	691.71167	-11.39321	-495.74335	-794.85254	23.39779	637.58569	775.24255	30.74296	641.79163	-13.69953	591.17780	-1006.56537	
911	9.100	-723.99597	-22.38987	-580.16156	690.16052	-11.49669	-496.20792	-795.73468	23.03623	637.65161	774.64423	30.39895	641.83832	-14.15937	592.10956	-1006.38312	
912	9.110	-724.92389	-22.12536	-580.03064	689.75488	-11.32370	-495.85541	-796.44452	22.88509	637.77954	773.87732	30.30526	641.89026	-15.37607	592.67444	-1006.09424	
913	9.120	-725.67151	-21.91771	-580.02020	688.61401	-10.76354	-495.82358	-797.50494	22.58496	637.75421	772.67938	29.69478	641.95178	-15.63434	592.85876	-1005.47021	
914	9.130	-726.83130	-21.43566	-579.86823	687.98492	-10.64514	-495.62564	-798.24323	22.14768	637.88983	771.94830	29.48656	642.15613	-16.63626	593.41119	-1005.36469	
915	9.140	-727.74225	-21.10846	-579.81635	687.31525	-10.42306	-495.44254	-799.29816	22.09414	637.95380	771.17810	29.26153	642.21283	-17.59990	593.88666	-1004.89514	
916	9.150	-728.33844	-20.83806	-579.72656	686.29706	-10.06378	-495.43719	-800.18530	21.64563	638.07129	770.30286	28.77508	642.18488	-18.63503	594.28003	-1004.45874	
917	9.160	-729.01080	-20.54769	-579.69611	685.62799	-9.65918	-495.22192	-800.90631	21.34919	638.16736	769.36639	28.40501	642.21246	-19.54793	594.85028	-1003.87457	
918	9.170	-730.16626	-20.27954	-579.71179	684.84094	-9.50927	-495.15854	-801.70276	20.99620	638.28900	768.68890	28.18704	642.36499	-20.32084	595.46570	-1003.21033	
919	9.180	-730.85986	-19.82070	-579.54584	683.93585	-9.12156	-495.18484	-802.44104	20.30591	638.34247	767.74384	27.72378	642.57239	-20.98923	596.02759	-1002.78961	
920	9.190	-731.63232	-19.51336	-579.39661	683.29437	-8.92390	-495.01620	-803.22955	19.93636	638.33618	767.18622	27.56645	642.66113	-21.76760	596.67682	-1002.18329	
921	9.200	-732.32861	-19.20089	-579.36945	682.50250	-8.52531	-494.85529	-803.96692	19.57276	638.57538	766.33673	26.99607	642.66376	-22.59046	597.39563	-1001.79242	
922	9.210	-733.14838	-18.86605	-579.29108	681.60712	-8.10646	-494.98343	-804.43829	19.39205	638.82971	765.62787	26.54776	642.96375	-23.33065	597.88641	-1001.41504	
923	9.220	-733.81372	-18.38353	-579.10974	680.96423	-7.74634	-494.66287	-805.49878	18.84067	638.96143	765.03491	25.98290	643.09869	-24.20491	598.68365	-1000.87988	
924	9.230	-734.61322	-17.82417	-579.04034	680.37616	-7.47055	-494.56134	-806.15887	18.46165	639.01733	764.36145	25.76501	643.18188	-24.66246	599.37671	-1000.28296	
925	9.240	-735.31079	-17.52650	-579.02448	679.49841	-6.88400	-494.63290	-806.93970	18.01822	639.17432	763.35779	25.19558	643.38354	-25.70906	599.87347	-1000.26062	
926	9.250	-736.07513	-17.16376	-578.99854	678.79956	-6.67643	-494.36240	-807.58411	17.65026	639.21967	762.69800	25.07247	643.52075	-26.21218	600.73480	-999.35852	
927	9.260	-736.78503	-16.89592	-578.87378	678.17798	-6.45386	-494.27365	-808.18317	17.21337	639.34839	762.20166	24.49075	643.46930	-26.64211	601.43683	-998.77380	
928	9.270	-737.45178	-16.27516	-578.72559	677.57526	-5.97176	-494.35239	-808.80408	16.73580	639.44720	761.36230	23.75000	643.58051	-27.33686	602.00482	-998.47888	
929	9.280	-737.97284	-15.96530	-578.74963	676.86035	-5.73685	-494.06100	-809.47058	16.37532	639.67999	760.71228	23.49722	643.65973	-28.10269	602.77106	-997.67572	
930	9.290	-738.75122	-15.72318	-578.51154	676.37091	-5.48315	-493.88187	-810.28894	15.72158	639.68372	760.15857	23.22935	643.77240	-28.89153	603.41077	-997.43140	
931	9.300	-739.50604	-15.53400	-578.16235	675.60950	-4.89959	-494.02994	-810.66290	15.37680	639.90717	759.63477	22.96822	643.91492	-29.65805	604.00598	-996.79596	
932	9.310	-740.15417	-15.06561	-578.24304	674.94434	-4.74187	-494.07516	-811.47961	15.05440	640.04718	758.77368	22.42710	643.88666	-30.28804	604.68555	-996.25098	
933	9.320	-740.78088	-14.42314	-578.06177	674.31134	-4.46996	-493.73917	-812.03802	14.81682	640.14471	758.32776	21.90828	643.95404	-30.67032	605.33789	-995.78577	
934	9.330	-741.23743	-14.04489	-577.98932	673.87927	-4.02193	-493.70401	-812.44568	14.62082	640.26324	757.73816	21.69370	644.17963	-31.19680	605.90710	-995.12158	
935	9.340	-741.66199	-13.62007	-578.04797	673.36969	-3.62117	-493.68292	-813.13312	14.14812	640.27753	757.14355	21.29558	644.34723	-31.97840	606.62939	-994.69293	
936	9.350	-742.31439	-13.17573	-577.99847	672.90118	-3.29534	-493.46951	-813.61841	13.70196	640.29773	756.67383	21.02338	644.42596	-32.37930	607.27698	-994.46246	
